<svg width="37" height="14" viewBox="0 0 37 14" fill="none" xmlns="http://www.w3.org/2000/svg">
<path d="M17.2478 7.11547V11.044H15.9199V1.3454H19.4301C19.8507 1.3387 20.2685 1.41031 20.6596 1.5561C21.0507 1.7019 21.4073 1.91901 21.7089 2.19495C21.9946 2.44588 22.225 2.74735 22.3868 3.08212C22.5487 3.41689 22.6388 3.77839 22.6522 4.14598C22.6655 4.51356 22.6017 4.88001 22.4645 5.22439C22.3272 5.56876 22.1192 5.8843 21.8524 6.15298L21.7089 6.29539C21.0958 6.84416 20.2766 7.14248 19.4301 7.12284L17.2478 7.11547ZM17.2478 2.53379V5.95655H19.4627C19.9545 5.97128 20.4293 5.79081 20.7736 5.46057C21.0199 5.21893 21.1853 4.91446 21.2493 4.58503C21.3132 4.25561 21.2727 3.91577 21.133 3.6078C20.9933 3.29982 20.7605 3.0373 20.4635 2.85289C20.1665 2.66848 19.8185 2.57032 19.4627 2.57062L17.2478 2.53379ZM25.7056 4.1887C26.5535 4.15187 27.3831 4.4195 28.0248 4.94126C28.6053 5.46916 28.9144 6.20577 28.8727 6.9657V11.0588H27.6087V10.1184H27.5448C27.3181 10.4711 26.9976 10.762 26.6149 10.9625C26.2322 11.1629 25.8005 11.2659 25.3625 11.2613C24.6476 11.2831 23.9504 11.0493 23.4111 10.607C23.1556 10.4108 22.9509 10.1626 22.8124 9.88097C22.6738 9.59937 22.6052 9.2918 22.6115 8.98154C22.5965 8.66799 22.6612 8.35558 22.8003 8.0703C22.9393 7.78502 23.1488 7.53512 23.4111 7.34137C24.0548 6.90574 24.8337 6.68337 25.626 6.70912C26.3004 6.68456 26.9696 6.82329 27.5696 7.11547V6.86012C27.574 6.64899 27.5273 6.43969 27.4331 6.24805C27.3388 6.05641 27.1995 5.88746 27.0257 5.75398C26.6765 5.45523 26.2191 5.29358 25.7473 5.3022C25.4047 5.29916 25.0669 5.37839 24.7658 5.53242C24.4648 5.68644 24.2104 5.91016 24.0268 6.18244L22.8594 5.49003C23.1764 5.06256 23.6043 4.71855 24.1026 4.49077C24.6008 4.26298 25.1526 4.15899 25.7056 4.1887ZM24.0268 9.01101C24.0237 9.17001 24.0621 9.3273 24.1388 9.46903C24.2154 9.61075 24.328 9.73256 24.4664 9.82373C24.7573 10.0398 25.1186 10.154 25.4904 10.1466C26.05 10.1454 26.5861 9.9379 26.9852 9.56714C27.3831 9.21603 27.6087 8.72618 27.6087 8.21302C27.1066 7.87702 26.4964 7.7148 25.8817 7.75387C25.4044 7.73618 24.9336 7.86265 24.5381 8.1148C24.3815 8.21342 24.253 8.3467 24.1639 8.50295C24.0747 8.6592 24.0277 8.83365 24.0268 9.01101ZM36.1396 4.40722L31.7176 13.9708H30.3506L32.0215 10.6217L29.1205 4.40722H30.5593L32.662 9.17674L34.7086 4.40722H36.1396Z" fill="#5F6368"/>
<path d="M11.8904 6.26789C11.8904 5.88977 11.859 5.51164 11.7951 5.13843H6.19922V7.28318H9.39632C9.33123 7.62403 9.1937 7.94901 8.99198 8.23865C8.79025 8.52829 8.52849 8.77662 8.22236 8.96877V10.361H10.132C10.7127 9.83219 11.1691 9.19476 11.472 8.48977C11.7748 7.78479 11.9174 7.02789 11.8904 6.26789Z" fill="#4285F4"/>
<path d="M6.20734 11.7134C7.65043 11.7507 9.05441 11.2691 10.1336 10.3666L8.22134 8.96707C7.76187 9.24434 7.24127 9.41934 6.69913 9.47878C6.15699 9.53821 5.60758 9.48051 5.0927 9.31006C4.57781 9.13961 4.11101 8.8609 3.72777 8.49513C3.34454 8.12936 3.05497 7.68615 2.8811 7.19922H0.921875V8.6356C1.41214 9.56008 2.16634 10.3377 3.09992 10.8814C4.03349 11.425 5.10952 11.7131 6.20734 11.7134Z" fill="#34A853"/>
<path d="M2.88169 7.20897C2.63358 6.51817 2.63358 5.76976 2.88169 5.07896V3.64258H0.922471C0.504781 4.4178 0.287109 5.27476 0.287109 6.14397C0.287109 7.01317 0.504781 7.87013 0.922471 8.64536L2.88169 7.20897Z" fill="#FBBC04"/>
<path d="M6.20734 2.77722C7.0513 2.76271 7.86714 3.06278 8.47701 3.61203L10.1727 2.02465C9.09151 1.06953 7.65738 0.548564 6.17473 0.572311C5.08342 0.577462 4.01494 0.866957 3.08776 1.4087C2.16057 1.95044 1.41091 2.72327 0.921875 3.6415L2.8811 5.07911C3.11018 4.41626 3.55429 3.83769 4.15095 3.42478C4.74761 3.01187 5.46679 2.78539 6.20734 2.77722Z" fill="#EA4335"/>
</svg>
