<svg width="29" height="18" viewBox="0 0 29 18" fill="none" xmlns="http://www.w3.org/2000/svg">
<path d="M9.66471 17.1875C14.6087 17.1875 18.6165 13.3399 18.6165 8.59373C18.6165 3.84754 14.6087 0 9.66471 0C4.72076 0 0.712891 3.84754 0.712891 8.59373C0.712891 13.3399 4.72076 17.1875 9.66471 17.1875Z" fill="#EB001B"/>
<path d="M19.8952 17.1875C24.8391 17.1875 28.847 13.3399 28.847 8.59373C28.847 3.84754 24.8391 0 19.8952 0C14.9512 0 10.9434 3.84754 10.9434 8.59373C10.9434 13.3399 14.9512 17.1875 19.8952 17.1875Z" fill="#F79E1B"/>
<path d="M18.6164 8.59223C18.6164 5.64581 17.0818 3.06769 14.7799 1.59448C12.478 3.19046 10.9434 5.76858 10.9434 8.59223C10.9434 11.4159 12.478 14.1168 14.7799 15.59C17.0818 14.1168 18.6164 11.5387 18.6164 8.59223Z" fill="#FF5F00"/>
</svg>
