<svg width="16" height="20" viewBox="0 0 16 20" fill="none" xmlns="http://www.w3.org/2000/svg">
<path d="M14.4048 4.85294C14.6958 3.38235 14.4048 2.35294 13.5317 1.47059C12.6587 0.441176 11.0582 0 9.02117 0H3.05556C2.61905 0 2.32804 0.294118 2.18254 0.735294L0 15.5882C0 15.8824 0.145503 16.1765 0.436508 16.1765H4.36508L4.94709 11.1765L7.56614 7.94118L14.4048 4.85294Z" fill="#003087"/>
<path d="M14.4049 4.85156L14.1139 5.14568C13.3864 9.26333 10.9128 10.7339 7.42077 10.7339H5.82024C5.38373 10.7339 5.09273 11.028 4.94722 11.4692L4.07421 17.2045L3.7832 18.6751C3.7832 18.9692 3.9287 19.2633 4.21971 19.2633H7.27527C7.71177 19.2633 8.00278 18.9692 8.00278 18.6751V18.528L8.58479 14.9986V14.8516C8.58479 14.5574 9.0213 14.2633 9.3123 14.2633H9.74881C12.8044 14.2633 15.1324 13.0869 15.7144 9.55744C16.0054 8.08686 15.8599 6.91039 15.1324 6.02803C14.9869 5.29274 14.6959 4.99862 14.4049 4.85156Z" fill="#3086C8"/>
<path d="M13.5314 4.55885C13.3859 4.41179 13.2404 4.41179 13.0949 4.41179C12.9494 4.41179 12.8039 4.41179 12.6584 4.26473C12.2219 4.11768 11.6399 4.11768 11.0579 4.11768H6.69281C6.54731 4.11768 6.4018 4.11768 6.4018 4.26473C6.1108 4.41179 5.9653 4.55885 5.9653 4.85297L4.94678 11.3236V11.4706C4.94678 11.0294 5.38329 10.7353 5.81979 10.7353H7.71133C11.3489 10.7353 13.6769 9.26473 14.4045 5.14709V4.85297C14.2589 4.70591 13.9679 4.55885 13.6769 4.55885H13.5314Z" fill="#012169"/>
</svg>
